<svg width="1022" height="221" viewBox="0 0 1022 221" fill="none" xmlns="http://www.w3.org/2000/svg">
<path d="M87.1939 220.43C82.4292 220.43 77.7439 219.279 73.1381 216.976C68.6116 214.593 64.2043 211.536 59.916 207.804C55.7072 203.992 51.7763 199.942 48.1234 195.654C44.5499 191.683 40.897 187.157 37.1646 182.074C33.4323 176.992 29.7396 171.592 26.0867 165.874C22.5132 160.157 19.1382 154.28 15.9617 148.245C12.8647 142.21 10.0853 136.254 7.62351 130.377C5.24116 124.422 3.37499 118.783 2.02499 113.463C0.674998 108.063 0 103.139 0 98.6922C0 90.8305 2.89852 84.7158 8.69557 80.3481C14.4926 75.9805 21.6397 73.7967 30.1367 73.7967C37.522 73.7967 43.8352 75.3452 49.0763 78.4423C54.3969 81.5393 58.2881 86.6614 60.7498 93.8084C61.941 97.779 63.2116 101.988 64.5616 106.435C65.991 110.802 67.4204 115.17 68.8498 119.538C70.2792 123.826 71.6689 127.916 73.0189 131.807C74.4483 135.698 75.7586 139.152 76.9498 142.17C79.2527 147.649 81.3969 151.977 83.3821 155.154C85.3674 158.251 87.2336 159.799 88.9807 159.799C91.0454 159.799 93.2292 158.33 95.5321 155.392C97.9145 152.454 100.416 148.245 103.037 142.766C104.386 140.304 105.776 137.445 107.206 134.189C108.714 130.933 110.223 127.519 111.732 123.945C113.32 120.292 114.829 116.6 116.259 112.867C117.767 109.055 119.236 105.363 120.666 101.789C123.286 94.7216 126.384 89.4408 129.957 85.9467C133.61 82.3731 137.7 80.0305 142.226 78.9187C146.753 77.7276 151.676 77.132 156.997 77.132C162.238 77.132 166.844 78.1246 170.814 80.1099C174.864 82.0952 178.041 84.7555 180.344 88.0908C182.647 91.3466 183.798 95.0393 183.798 99.1687C183.798 102.98 182.885 107.467 181.058 112.629C179.311 117.791 176.889 123.35 173.792 129.305C170.775 135.261 167.36 141.336 163.548 147.53C159.736 153.645 155.726 159.641 151.517 165.517C147.388 171.394 143.298 176.913 139.248 182.074C135.278 187.157 131.585 191.564 128.17 195.296C123.564 200.299 119.038 204.707 114.591 208.518C110.144 212.251 105.657 215.149 101.131 217.214C96.6836 219.358 92.038 220.43 87.1939 220.43Z" fill="#A7E563"/>
<path d="M201 31.5311C201 48.9452 186.883 63.0621 169.469 63.0621C152.055 63.0621 137.938 48.9452 137.938 31.5311C137.938 14.1169 152.055 0 169.469 0C186.883 0 201 14.1169 201 31.5311Z" fill="#A7E563"/>
<path d="M261.776 95.7911L285.215 168.81H286.115L309.601 95.7911H332.33L298.9 191.898H272.478L239 95.7911H261.776Z" fill="black"/>
<path d="M368.282 193.306C360.927 193.306 354.566 191.758 349.199 188.66C343.864 185.532 339.745 181.183 336.84 175.615C333.936 170.015 332.484 163.523 332.484 156.14C332.484 148.694 333.936 142.187 336.84 136.618C339.745 131.018 343.864 126.669 349.199 123.572C354.566 120.444 360.927 118.879 368.282 118.879C375.637 118.879 381.982 120.444 387.317 123.572C392.684 126.669 396.819 131.018 399.724 136.618C402.628 142.187 404.08 148.694 404.08 156.14C404.08 163.523 402.628 170.015 399.724 175.615C396.819 181.183 392.684 185.532 387.317 188.66C381.982 191.758 375.637 193.306 368.282 193.306ZM368.377 177.82C371.723 177.82 374.517 176.882 376.758 175.004C378.999 173.096 380.688 170.499 381.825 167.215C382.993 163.93 383.577 160.191 383.577 155.999C383.577 151.807 382.993 148.068 381.825 144.783C380.688 141.498 378.999 138.902 376.758 136.993C374.517 135.085 371.723 134.131 368.377 134.131C364.999 134.131 362.158 135.085 359.853 136.993C357.58 138.902 355.86 141.498 354.692 144.783C353.556 148.068 352.987 151.807 352.987 155.999C352.987 160.191 353.556 163.93 354.692 167.215C355.86 170.499 357.58 173.096 359.853 175.004C362.158 176.882 364.999 177.82 368.377 177.82Z" fill="black"/>
<path d="M449.964 220.43C443.429 220.43 437.826 219.539 433.154 217.755C428.513 216.003 424.82 213.61 422.074 210.575C419.327 207.541 417.544 204.131 416.723 200.345L435.379 197.858C435.948 199.297 436.847 200.642 438.078 201.894C439.31 203.145 440.935 204.146 442.956 204.897C445.008 205.679 447.501 206.07 450.437 206.07C454.825 206.07 458.44 205.007 461.281 202.879C464.153 200.783 465.59 197.264 465.59 192.321V179.134H464.737C463.853 181.136 462.528 183.029 460.76 184.812C458.992 186.596 456.719 188.05 453.941 189.177C451.163 190.303 447.849 190.866 443.997 190.866C438.536 190.866 433.564 189.615 429.082 187.112C424.631 184.578 421.079 180.714 418.427 175.521C415.807 170.296 414.497 163.695 414.497 155.717C414.497 147.552 415.839 140.732 418.522 135.257C421.205 129.782 424.773 125.684 429.224 122.962C433.706 120.24 438.615 118.879 443.95 118.879C448.022 118.879 451.432 119.568 454.178 120.944C456.924 122.289 459.134 123.979 460.807 126.012C462.512 128.015 463.822 129.985 464.737 131.925H465.495V119.818H485.525V192.602C485.525 198.734 484.01 203.865 480.979 207.994C477.949 212.124 473.75 215.221 468.383 217.286C463.049 219.382 456.909 220.43 449.964 220.43ZM450.39 175.849C453.641 175.849 456.388 175.051 458.629 173.456C460.902 171.829 462.638 169.514 463.838 166.511C465.069 163.476 465.684 159.847 465.684 155.623C465.684 151.4 465.085 147.74 463.885 144.642C462.685 141.514 460.949 139.089 458.676 137.369C456.403 135.648 453.641 134.788 450.39 134.788C447.075 134.788 444.281 135.679 442.009 137.463C439.736 139.215 438.015 141.655 436.847 144.783C435.679 147.912 435.095 151.525 435.095 155.623C435.095 159.784 435.679 163.382 436.847 166.417C438.047 169.42 439.767 171.751 442.009 173.409C444.281 175.036 447.075 175.849 450.39 175.849Z" fill="black"/>
<path d="M548.218 161.208V119.818H568.39V191.898H549.023V178.806H548.266C546.624 183.029 543.894 186.423 540.074 188.989C536.286 191.554 531.661 192.837 526.2 192.837C521.338 192.837 517.061 191.742 513.368 189.552C509.674 187.362 506.786 184.249 504.702 180.213C502.65 176.178 501.609 171.344 501.577 165.713V119.818H521.749V162.146C521.78 166.401 522.933 169.764 525.205 172.236C527.478 174.707 530.525 175.943 534.344 175.943C536.775 175.943 539.048 175.396 541.163 174.301C543.278 173.174 544.983 171.516 546.277 169.326C547.603 167.136 548.25 164.43 548.218 161.208Z" fill="black"/>
<path d="M617.672 193.306C610.19 193.306 603.75 191.804 598.352 188.801C592.986 185.766 588.85 181.48 585.946 175.943C583.042 170.374 581.59 163.789 581.59 156.187C581.59 148.772 583.042 142.265 585.946 136.665C588.85 131.065 592.938 126.701 598.21 123.572C603.513 120.444 609.732 118.879 616.867 118.879C621.665 118.879 626.132 119.646 630.267 121.179C634.434 122.68 638.064 124.949 641.158 127.983C644.283 131.018 646.714 134.835 648.45 139.434C650.186 144.001 651.054 149.351 651.054 155.483V160.973H589.639V148.584H632.066C632.066 145.706 631.435 143.156 630.172 140.935C628.91 138.714 627.158 136.978 624.916 135.726C622.707 134.444 620.134 133.802 617.198 133.802C614.136 133.802 611.421 134.506 609.054 135.914C606.718 137.291 604.887 139.152 603.561 141.498C602.235 143.813 601.556 146.394 601.525 149.241V161.02C601.525 164.587 602.188 167.668 603.513 170.265C604.871 172.861 606.781 174.864 609.243 176.272C611.705 177.679 614.625 178.383 618.003 178.383C620.244 178.383 622.296 178.07 624.159 177.445C626.021 176.819 627.615 175.88 628.941 174.629C630.267 173.378 631.277 171.845 631.972 170.03L650.628 171.25C649.681 175.693 647.74 179.572 644.804 182.888C641.9 186.173 638.143 188.739 633.534 190.584C628.957 192.399 623.669 193.306 617.672 193.306Z" fill="black"/>
<path d="M726.028 119.818C725.492 114.468 723.108 110.213 718.878 107.054C714.648 103.894 709.329 102.314 702.921 102.314C698.406 102.314 694.429 103.08 690.988 104.613C687.579 106.146 684.895 108.274 682.938 110.996C681.013 113.686 680.05 116.752 680.05 120.193C680.05 122.727 680.602 124.949 681.707 126.857C682.812 128.765 684.296 130.408 686.158 131.784C688.052 133.13 690.136 134.287 692.408 135.257C694.713 136.227 697.033 137.04 699.369 137.697L709.597 140.607C712.691 141.451 715.784 142.531 718.878 143.845C721.972 145.159 724.797 146.817 727.354 148.819C729.943 150.79 732.01 153.215 733.557 156.093C735.136 158.94 735.925 162.365 735.925 166.37C735.925 171.501 734.583 176.115 731.9 180.213C729.217 184.312 725.365 187.565 720.346 189.974C715.327 192.352 709.313 193.541 702.305 193.541C695.707 193.541 689.978 192.461 685.116 190.303C680.255 188.113 676.435 185.094 673.657 181.246C670.879 177.398 669.317 172.94 668.969 167.872H678.061C678.377 171.657 679.639 174.864 681.849 177.492C684.059 180.12 686.931 182.122 690.467 183.498C694.003 184.844 697.949 185.516 702.305 185.516C707.135 185.516 711.428 184.718 715.185 183.123C718.973 181.496 721.94 179.244 724.087 176.365C726.265 173.456 727.354 170.077 727.354 166.229C727.354 162.975 726.502 160.254 724.797 158.064C723.092 155.842 720.709 153.981 717.647 152.479C714.616 150.978 711.097 149.648 707.088 148.491L695.486 145.112C687.879 142.859 681.975 139.746 677.777 135.773C673.578 131.8 671.479 126.732 671.479 120.569C671.479 115.407 672.868 110.87 675.646 106.96C678.456 103.018 682.244 99.952 687.01 97.762C691.809 95.5408 697.191 94.4302 703.157 94.4302C709.187 94.4302 714.522 95.5251 719.162 97.7151C723.803 99.905 727.48 102.924 730.195 106.772C732.942 110.589 734.409 114.937 734.599 119.818H726.028Z" fill="black"/>
<path d="M783.75 193.4C777.468 193.4 771.912 191.82 767.082 188.66C762.284 185.501 758.527 181.136 755.812 175.568C753.098 169.968 751.74 163.507 751.74 156.187C751.74 148.803 753.098 142.312 755.812 136.712C758.527 131.08 762.284 126.701 767.082 123.572C771.912 120.412 777.468 118.832 783.75 118.832C790.032 118.832 795.572 120.412 800.37 123.572C805.169 126.732 808.925 131.112 811.64 136.712C814.386 142.312 815.76 148.803 815.76 156.187C815.76 163.507 814.402 169.968 811.687 175.568C808.973 181.136 805.2 185.501 800.37 188.66C795.572 191.82 790.032 193.4 783.75 193.4ZM783.75 185.751C788.801 185.751 793.078 184.406 796.582 181.715C800.086 179.025 802.738 175.442 804.537 170.969C806.368 166.495 807.284 161.568 807.284 156.187C807.284 150.806 806.368 145.863 804.537 141.358C802.738 136.853 800.086 133.239 796.582 130.517C793.078 127.796 788.801 126.435 783.75 126.435C778.731 126.435 774.453 127.796 770.918 130.517C767.414 133.239 764.746 136.853 762.915 141.358C761.116 145.863 760.216 150.806 760.216 156.187C760.216 161.568 761.116 166.495 762.915 170.969C764.746 175.442 767.414 179.025 770.918 181.715C774.422 184.406 778.699 185.751 783.75 185.751Z" fill="black"/>
<path d="M862.673 193.4C856.17 193.4 850.504 191.789 845.674 188.566C840.876 185.344 837.151 180.933 834.499 175.333C831.847 169.733 830.522 163.351 830.522 156.187C830.522 148.96 831.863 142.531 834.546 136.899C837.261 131.268 841.018 126.857 845.816 123.666C850.614 120.444 856.186 118.832 862.531 118.832C867.393 118.832 871.796 119.771 875.742 121.648C879.688 123.494 882.94 126.106 885.497 129.485C888.085 132.832 889.711 136.743 890.374 141.217H881.851C880.967 137.15 878.836 133.677 875.458 130.799C872.112 127.889 867.85 126.435 862.673 126.435C858.033 126.435 853.929 127.686 850.362 130.189C846.795 132.66 844.001 136.117 841.981 140.56C839.992 144.971 838.997 150.086 838.997 155.905C838.997 161.755 839.976 166.933 841.933 171.438C843.891 175.912 846.637 179.416 850.173 181.95C853.74 184.484 857.907 185.751 862.673 185.751C865.893 185.751 868.829 185.156 871.481 183.968C874.164 182.747 876.405 181.027 878.205 178.806C880.036 176.584 881.267 173.941 881.898 170.875H890.421C889.79 175.223 888.227 179.103 885.734 182.513C883.271 185.892 880.067 188.551 876.121 190.491C872.207 192.43 867.724 193.4 862.673 193.4Z" fill="black"/>
<path d="M908.581 191.898V119.818H917.057V191.898H908.581ZM912.89 107.429C911.154 107.429 909.67 106.85 908.439 105.693C907.208 104.504 906.592 103.08 906.592 101.422C906.592 99.7643 907.208 98.3564 908.439 97.1989C909.67 96.0101 911.154 95.4156 912.89 95.4156C914.626 95.4156 916.11 96.0101 917.341 97.1989C918.572 98.3564 919.188 99.7643 919.188 101.422C919.188 103.08 918.572 104.504 917.341 105.693C916.11 106.85 914.626 107.429 912.89 107.429Z" fill="black"/>
<path d="M959.661 193.541C955.274 193.541 951.264 192.696 947.634 191.007C944.004 189.286 941.115 186.815 938.969 183.592C936.822 180.339 935.749 176.397 935.749 171.766C935.749 168.2 936.428 165.197 937.785 162.756C939.142 160.316 941.068 158.314 943.562 156.75C946.056 155.185 949.007 153.95 952.417 153.042C955.826 152.135 959.583 151.431 963.686 150.931C967.759 150.43 971.2 149.992 974.009 149.617C976.85 149.241 979.013 148.647 980.496 147.834C981.98 147.02 982.722 145.706 982.722 143.892V142.202C982.722 137.291 981.238 133.427 978.271 130.611C975.335 127.764 971.105 126.341 965.58 126.341C960.34 126.341 956.063 127.483 952.748 129.766C949.465 132.05 947.161 134.741 945.835 137.838L937.832 134.975C939.474 131.034 941.747 127.889 944.651 125.543C947.555 123.165 950.807 121.46 954.405 120.428C958.004 119.364 961.65 118.832 965.344 118.832C968.122 118.832 971.01 119.192 974.009 119.912C977.04 120.631 979.849 121.883 982.438 123.666C985.026 125.418 987.125 127.874 988.735 131.034C990.345 134.162 991.15 138.135 991.15 142.953V191.898H982.722V180.495H982.201C981.191 182.622 979.691 184.687 977.702 186.689C975.714 188.692 973.22 190.334 970.221 191.617C967.222 192.899 963.702 193.541 959.661 193.541ZM960.798 185.892C965.281 185.892 969.163 184.906 972.446 182.935C975.73 180.964 978.255 178.352 980.023 175.098C981.822 171.813 982.722 168.2 982.722 164.258V153.84C982.09 154.435 981.033 154.966 979.549 155.436C978.097 155.905 976.408 156.327 974.483 156.703C972.589 157.047 970.694 157.344 968.8 157.594C966.906 157.845 965.202 158.064 963.686 158.251C959.583 158.752 956.079 159.534 953.174 160.598C950.27 161.661 948.045 163.132 946.498 165.009C944.951 166.855 944.177 169.232 944.177 172.142C944.177 176.522 945.756 179.916 948.913 182.325C952.069 184.703 956.031 185.892 960.798 185.892Z" fill="black"/>
<path d="M1022 95.7911V191.898H1013.57V95.7911H1022Z" fill="black"/>
</svg>
